<svg xmlns="http://www.w3.org/2000/svg" width="86" height="89" viewBox="0 0 86 89">
    <g fill="none" fill-rule="evenodd">
        <path fill="#00AEEF" d="M0 28.332v28.331c15.871 0 28.738-12.684 28.738-28.331V0C12.866 0 0 12.684 0 28.332"/>
        <path fill="#FFE300" d="M57.09 28.332v28.331c15.87 0 28.737-12.684 28.737-28.331V0C69.956 0 57.09 12.684 57.09 28.332"/>
        <path fill="#64C3A2" d="M57.268 28.332C57.268 12.684 44.402 0 28.53 0v28.332c0 15.647 12.867 28.331 28.738 28.331V28.332z"/>
        <path fill="#231F20" d="M0 83.37V72.764h2.773v.853a4.787 4.787 0 0 1 3.04-1.072c1.485 0 2.839.656 3.726 1.706.71.83 1.11 1.902 1.11 3.718v5.401H7.763v-5.62c0-1.05-.244-1.597-.643-1.99-.377-.372-.954-.59-1.62-.59-1.22 0-2.218.765-2.617 1.312v6.888H0zM21.896 76.7c-.089-.94-.954-1.859-2.13-1.859-1.197 0-2.174.897-2.307 1.86h4.437zm2.684 4.986c-1.042 1.225-2.75 1.903-4.414 1.903-3.217 0-5.635-2.186-5.635-5.51 0-2.954 2.04-5.534 5.235-5.534 2.973 0 5.08 2.471 5.08 5.424 0 .284-.022.568-.066.809h-7.454c.156 1.487 1.375 2.515 2.906 2.515 1.22 0 2.196-.678 2.706-1.225l1.642 1.618zM36.826 83.37c-.377.132-1.242.22-1.797.22-1.73 0-2.995-.57-3.727-1.532-.554-.721-.798-1.662-.798-3.17V75.17H27.51v-2.406h2.994V69.81h2.884v2.953h3.55v2.406h-3.55v4.045c0 .656.111 1.05.355 1.334.288.329.754.525 1.464.525.422 0 .976-.066 1.176-.11l.443 2.406zM48.474 76.482a3.324 3.324 0 0 0-2.662-1.312c-1.687 0-2.773 1.377-2.773 2.908 0 1.662 1.22 2.886 2.84 2.886 1.086 0 2.04-.524 2.595-1.311v-3.171zm2.884 6.298c0 1.903-.333 3.04-.977 3.937-.976 1.334-2.707 2.12-4.77 2.12-2.106 0-4.103-.961-5.168-2.186l1.82-1.859c.576.612 1.574 1.53 3.349 1.53.931 0 1.708-.284 2.196-.852.444-.481.666-1.137.666-2.493v-.35c-.866.656-1.797.962-2.884.962-1.598 0-3.128-.7-4.082-1.793-.843-.962-1.353-2.275-1.353-3.718 0-3.127 2.352-5.533 5.28-5.533 1.22 0 2.306.393 3.15 1.072v-.853h2.773V82.78zM61.23 67.624l-2.662 3.5h-1.997l1.553-3.5h3.106zM56.35 83.37h2.884V72.764H56.35V83.37zM70.77 75.279c-.2-.066-.622-.11-1.043-.11-1.264 0-2.263.897-2.618 1.531v6.67h-2.884V72.764h2.773v1.071c.644-.787 1.82-1.29 3.128-1.29.421 0 .666.043.976.087l-.332 2.647zM83.148 67.624l-2.662 3.5H78.49l1.552-3.5h3.106zm-3.66 13.34c1.686 0 2.84-1.29 2.84-2.886s-1.154-2.909-2.84-2.909-2.84 1.313-2.84 2.91c0 1.596 1.154 2.886 2.84 2.886zm0-8.42c3.26 0 5.723 2.472 5.723 5.534s-2.462 5.51-5.723 5.51c-3.261 0-5.723-2.448-5.723-5.51s2.462-5.533 5.723-5.533z"/>
    </g>
</svg>
